<?xml version="1.0" encoding="utf-8"?>
<!-- Generator: Adobe Illustrator 16.0.0, SVG Export Plug-In . SVG Version: 6.00 Build 0)  -->
<!DOCTYPE svg PUBLIC "-//W3C//DTD SVG 1.1//EN" "http://www.w3.org/Graphics/SVG/1.1/DTD/svg11.dtd">
<svg version="1.1" id="Layer_1" xmlns="http://www.w3.org/2000/svg" xmlns:xlink="http://www.w3.org/1999/xlink" x="0px" y="0px"
	 width="285.666px" height="65.598px" viewBox="0 0 285.666 65.598" enable-background="new 0 0 285.666 65.598"
	 xml:space="preserve">
<linearGradient id="SVGID_1_" gradientUnits="userSpaceOnUse" x1="-139.1523" y1="570.2092" x2="-130.4865" y2="610.9791" gradientTransform="matrix(1 0 0 1 168 -545.4023)">
	<stop  offset="0" style="stop-color:#FFD54F"/>
	<stop  offset="0.2164" style="stop-color:#FFD03D"/>
	<stop  offset="0.7309" style="stop-color:#FFC516"/>
	<stop  offset="1" style="stop-color:#FFC107"/>
</linearGradient>
<path fill="url(#SVGID_1_)" d="M30.513,61.279c0.798,0,1.589-0.029,2.37-0.092c0.469-0.035,1.719-0.178,2.183-0.232
	c0.784-0.1,1.781,4.758,2.548,4.602c0.816-0.166,0.617-5.159,1.408-5.39c12.711-3.684,22.004-14.228,22.004-29.228H0
	c0,14,8.757,24.854,20.898,28.882c0.701,0.232,0.665,5.59,1.389,5.771c0.746,0.188,2.253-4.867,3.021-4.734
	c0.924,0.16,1.864,0.268,2.815,0.342C28.912,61.259,29.709,61.279,30.513,61.279z"/>
<ellipse fill="#FFE082" cx="30.513" cy="30.702" rx="30.513" ry="5.837"/>
<linearGradient id="SVGID_2_" gradientUnits="userSpaceOnUse" x1="-168" y1="563.8596" x2="-106.9741" y2="563.8596" gradientTransform="matrix(1 0 0 1 168 -545.4023)">
	<stop  offset="0" style="stop-color:#FFD54F"/>
	<stop  offset="0.2164" style="stop-color:#FFD03D"/>
	<stop  offset="0.7309" style="stop-color:#FFC516"/>
	<stop  offset="1" style="stop-color:#FFC107"/>
</linearGradient>
<path opacity="0.2" fill="url(#SVGID_2_)" enable-background="new    " d="M61.025,30.939c0-16-12.388-29.424-28.123-30.645
	C32.113,0.235,31.317,0,30.513,0c-0.797,0-1.587,0.244-2.368,0.303C12.399,1.512,0,14.939,0,30.939h0.024
	C0.015,31.939,0,31.031,0,31.094c0,3.226,13.662,5.821,30.513,5.821c16.853,0,30.513-2.588,30.513-5.812
	c0-0.062-0.014,0.836-0.024-0.164H61.025z"/>
<linearGradient id="SVGID_3_" gradientUnits="userSpaceOnUse" x1="-137.9634" y1="599.2678" x2="-137.9634" y2="606.6917" gradientTransform="matrix(1 0 0 1 168 -545.4023)">
	<stop  offset="0" style="stop-color:#FFC107"/>
	<stop  offset="0.4213" style="stop-color:#FFBE06"/>
	<stop  offset="0.6937" style="stop-color:#FFB605"/>
	<stop  offset="0.9233" style="stop-color:#FFA701"/>
	<stop  offset="1" style="stop-color:#FFA000"/>
</linearGradient>
<path opacity="0.5" fill="url(#SVGID_3_)" enable-background="new    " d="M43.815,58.111c-3.909,1.729-8.235,3.334-13.303,3.168
	c-7.441-0.242-11.934-2.561-14.584-3.84c-1.25-0.602,6.316-3.572,15.419-3.572C37.666,53.865,46.402,56.969,43.815,58.111z"/>
<path fill="#FF8F00" d="M26,42.707c0-1.518-1.017-2.742-2.275-2.742c-1.259,0-2.278,1.227-2.278,2.742
	c0,0.264-0.002,1.252-0.002,1.516c0,1.514,1.02,2.74,2.278,2.74c1.258,0,2.277-1.229,2.277-2.74C26,43.959,26,42.971,26,42.707z"/>
<path fill="#FF8F00" d="M38,42.707c0-1.518-1.077-2.742-2.337-2.742c-1.258,0-2.308,1.227-2.308,2.742
	c0,0.264-0.018,1.252-0.018,1.516c0,1.514,1.073,2.74,2.331,2.74S38,45.736,38,44.223C38,43.959,38,42.971,38,42.707z"/>
<rect x="76.667" y="21.692" fill="none" width="209" height="25.55"/>
<g enable-background="new    ">
	<path fill="#FFB300" d="M90.042,44.668l-6.176-10.145v10.145h-4.96V21.693h6.08c2.73,0,4.949,0.726,6.656,2.177
		c1.707,1.45,2.56,3.435,2.56,5.951c0,2.815-1.29,4.916-3.87,6.303l5.277,8.546L90.042,44.668L90.042,44.668z M84.986,26.109h-1.12
		v7.425h1.12c1.301,0,2.336-0.331,3.104-0.992s1.152-1.568,1.152-2.721c0-1.151-0.384-2.059-1.152-2.721
		C87.322,26.44,86.288,26.109,84.986,26.109z"/>
	<path fill="#FFB300" d="M106.17,44.668V21.693h11.328v4.416h-6.368v4.479h5.888v4.416h-5.888v5.248h6.368v4.416H106.17
		L106.17,44.668z"/>
	<path fill="#FFB300" d="M131.114,41.724c-2.251-2.282-3.376-5.13-3.376-8.544c0-3.413,1.125-6.261,3.376-8.544
		c2.25-2.282,5.136-3.424,8.656-3.424c1.237,0,2.426,0.155,3.568,0.464c1.142,0.31,1.968,0.624,2.479,0.944l0.8,0.479l-2.496,3.872
		c-0.128-0.105-0.304-0.234-0.526-0.384c-0.226-0.148-0.711-0.347-1.458-0.592c-0.747-0.245-1.515-0.368-2.304-0.368
		c-2.091,0-3.803,0.704-5.136,2.112c-1.333,1.407-2,3.222-2,5.438c0,2.22,0.667,4.032,2,5.44c1.333,1.407,3.045,2.111,5.136,2.111
		c0.789,0,1.541-0.111,2.256-0.337c0.714-0.224,1.232-0.441,1.553-0.655l0.479-0.353l2.496,3.872
		c-0.191,0.149-0.475,0.326-0.848,0.528s-1.158,0.479-2.353,0.832c-1.196,0.352-2.412,0.527-3.648,0.527
		C136.25,45.149,133.365,44.007,131.114,41.724z"/>
	<path fill="#FFB300" d="M155.577,44.668l9.557-23.752l9.621,23.752h-4.938l-1.149-2.944h-6.946l-1.143,2.944H155.577z
		 M167.131,37.788l-1.948-4.989l-1.936,4.989H167.131z"/>
	<path fill="#FFB300" d="M192.474,40.733c0.875,0,1.558-0.207,2.047-0.622c0.492-0.415,0.736-1.006,0.736-1.771
		c0-0.659-0.258-1.234-0.771-1.724c-0.514-0.488-1.151-0.896-1.914-1.22c-0.764-0.321-1.6-0.677-2.51-1.062
		s-1.748-0.812-2.517-1.282c-0.769-0.469-1.407-1.151-1.92-2.048s-0.769-1.952-0.769-3.168c0-1.92,0.666-3.504,2-4.752
		s3.088-1.872,5.265-1.872c0.981,0,1.92,0.128,2.815,0.384s1.633,0.565,2.209,0.929c0.576,0.362,1.088,0.726,1.535,1.089
		c0.447,0.361,0.769,0.672,0.961,0.928l0.318,0.384l-3.2,3.04c-0.147-0.17-0.362-0.384-0.64-0.64
		c-0.277-0.257-0.832-0.604-1.664-1.04c-0.832-0.438-1.632-0.656-2.398-0.656c-0.685,0-1.229,0.194-1.634,0.581
		s-0.606,0.912-0.606,1.576c0,0.597,0.25,1.122,0.75,1.575s1.125,0.812,1.877,1.078c0.75,0.267,1.58,0.61,2.488,1.033
		c0.907,0.423,1.754,0.873,2.539,1.351c0.783,0.478,1.438,1.177,1.961,2.1c0.522,0.923,0.784,2.006,0.784,3.25
		c0,2.112-0.71,3.803-2.129,5.072c-1.419,1.269-3.291,1.903-5.614,1.903c-1.089,0-2.129-0.134-3.121-0.399
		c-0.992-0.267-1.818-0.592-2.479-0.978c-0.661-0.384-1.243-0.771-1.744-1.168c-0.501-0.395-0.869-0.729-1.104-1.008l-0.318-0.384
		l3.393-3.393c0.063,0.086,0.145,0.191,0.239,0.319s0.32,0.357,0.672,0.688c0.353,0.331,0.726,0.624,1.12,0.88
		s0.896,0.491,1.505,0.704C191.241,40.625,191.854,40.733,192.474,40.733z"/>
	<path fill="#FFB300" d="M209.497,26.109v-4.416h13.215v4.416h-4.127v18.561h-4.961V26.109H209.497z"/>
	<path fill="#FFB300" d="M230.712,44.668v-4.96h4.832v4.96H230.712z"/>
</g>
<g enable-background="new    ">
	<path fill="#FFB300" d="M258.61,20.734l8.512,23.936h-2.4l-1.736-4.992h-8.764l-1.724,4.992h-2.336L258.61,20.734z M258.587,27.033
		l-3.68,10.658h7.389L258.587,27.033z"/>
</g>
<g enable-background="new    ">
	<path fill="#FFB300" d="M280.546,44.668V21.693h2.24v22.977L280.546,44.668L280.546,44.668z"/>
</g>
</svg>
